<?xml version="1.0" encoding="utf-8"?>
<!-- Generator: Adobe Illustrator 18.1.0, SVG Export Plug-In . SVG Version: 6.00 Build 0)  -->
<!DOCTYPE svg PUBLIC "-//W3C//DTD SVG 1.1//EN" "http://www.w3.org/Graphics/SVG/1.1/DTD/svg11.dtd">
<svg version="1.1" id="Layer_1" xmlns="http://www.w3.org/2000/svg" xmlns:xlink="http://www.w3.org/1999/xlink" x="0px" y="0px"
	 viewBox="0 0 46 46" enable-background="new 0 0 46 46" xml:space="preserve">
<g>
	<path fill="#FFFFFF" d="M23,0C10.3,0,0,10.3,0,23c0,12.7,10.3,23,23,23c12.7,0,23-10.3,23-23C46,10.3,35.7,0,23,0z M23,43.9
		C11.5,43.9,2.1,34.5,2.1,23C2.1,11.5,11.5,2.1,23,2.1S43.9,11.5,43.9,23C43.9,34.5,34.5,43.9,23,43.9z"/>
	<path fill="#FFFFFF" d="M28.8,17.2c-0.4-0.4-1.1-0.4-1.5,0L23,21.5l-4.3-4.3c-0.4-0.4-1.1-0.4-1.5,0s-0.4,1.1,0,1.5l4.3,4.3
		l-4.3,4.3c-0.4,0.4-0.4,1.1,0,1.5c0.2,0.2,0.5,0.3,0.7,0.3c0.3,0,0.5-0.1,0.7-0.3l4.3-4.3l4.3,4.3c0.2,0.2,0.5,0.3,0.7,0.3
		c0.3,0,0.5-0.1,0.7-0.3c0.4-0.4,0.4-1.1,0-1.5L24.5,23l4.3-4.3C29.2,18.3,29.2,17.6,28.8,17.2z"/>
</g>
</svg>
